<svg width="471" height="352" viewBox="0 0 471 352" fill="none" xmlns="http://www.w3.org/2000/svg">
<path d="M10.9428 262.202C10.9428 260.911 11.3865 259.661 12.2738 258.451C13.2418 257.241 14.2905 256.636 15.4198 256.636C16.1458 256.636 17.0735 257.16 18.2028 258.209C19.3322 259.177 20.5018 260.306 21.7118 261.597C22.9218 262.807 24.8175 263.936 27.3988 264.985C29.9802 265.953 32.8842 266.437 36.1108 266.437C41.3542 266.437 45.4682 265.186 48.4528 262.686C51.4375 260.104 52.9298 256.353 52.9298 251.433C52.9298 246.996 51.5585 243.406 48.8158 240.664C46.0732 237.84 42.7658 235.703 38.8938 234.251C35.0218 232.799 31.1095 231.266 27.1568 229.653C23.2848 227.959 19.9775 225.418 17.2348 222.03C14.4922 218.561 13.1208 214.124 13.1208 208.72C13.1208 204.525 13.9275 200.895 15.5408 197.83C17.1542 194.684 19.2918 192.344 21.9538 190.812C24.6965 189.198 27.5198 188.029 30.4238 187.303C33.3278 186.577 36.4335 186.214 39.7408 186.214C44.7422 186.214 49.5015 186.94 54.0188 188.392C58.6168 189.763 60.9158 191.699 60.9158 194.2C60.9158 195.329 60.5125 196.539 59.7058 197.83C58.8992 199.12 57.8505 199.766 56.5598 199.766C56.2372 199.766 54.3818 198.999 50.9938 197.467C47.6058 195.934 43.8548 195.168 39.7408 195.168C34.8202 195.168 30.8272 196.176 27.7618 198.193C24.7772 200.209 23.2848 203.396 23.2848 207.752C23.2848 211.462 24.6562 214.487 27.3988 216.827C30.1415 219.085 33.4488 220.9 37.3208 222.272C41.2735 223.643 45.1858 225.216 49.0578 226.991C52.9298 228.765 56.2372 231.629 58.9798 235.582C61.7225 239.454 63.0938 244.415 63.0938 250.465C63.0938 258.854 60.6738 265.186 55.8338 269.462C50.9938 273.737 44.5808 275.875 36.5948 275.875C29.4155 275.875 23.3252 274.342 18.3238 271.277C13.4032 268.211 10.9428 265.186 10.9428 262.202ZM76.2772 271.277V189.965C76.2772 188.835 76.7612 187.988 77.7292 187.424C78.7778 186.778 79.9878 186.456 81.3592 186.456C82.7305 186.456 83.9002 186.778 84.8682 187.424C85.9168 187.988 86.4412 188.835 86.4412 189.965V271.277C86.4412 272.406 85.9168 273.293 84.8682 273.939C83.9002 274.584 82.7305 274.907 81.3592 274.907C79.9878 274.907 78.7778 274.584 77.7292 273.939C76.7612 273.293 76.2772 272.406 76.2772 271.277ZM103.573 271.277V189.965C103.573 188.835 104.057 187.988 105.025 187.424C106.074 186.778 107.284 186.456 108.655 186.456C110.026 186.456 111.196 186.778 112.164 187.424C113.213 187.988 113.737 188.835 113.737 189.965V265.711H146.77C147.819 265.711 148.625 266.195 149.19 267.163C149.755 268.05 150.037 269.099 150.037 270.309C150.037 271.519 149.755 272.608 149.19 273.576C148.625 274.463 147.819 274.907 146.77 274.907H108.171C106.961 274.907 105.872 274.584 104.904 273.939C104.017 273.293 103.573 272.406 103.573 271.277ZM153.64 270.672C153.64 270.51 153.72 270.188 153.882 269.704L178.566 189.239C179.292 186.899 181.389 185.73 184.858 185.73C188.326 185.73 190.424 186.899 191.15 189.239L215.834 269.704C215.834 269.865 215.834 270.026 215.834 270.188C215.914 270.349 215.955 270.47 215.955 270.551C215.955 271.68 215.269 272.688 213.898 273.576C212.607 274.463 211.195 274.907 209.663 274.907C207.727 274.907 206.517 274.14 206.033 272.608L200.709 254.579H168.886L163.562 272.608C163.078 274.14 161.827 274.907 159.811 274.907C158.359 274.907 156.947 274.503 155.576 273.697C154.285 272.89 153.64 271.882 153.64 270.672ZM171.185 246.23H198.289L184.858 200.734L171.185 246.23ZM222.102 262.202C222.102 260.911 222.546 259.661 223.433 258.451C224.401 257.241 225.45 256.636 226.579 256.636C227.305 256.636 228.233 257.16 229.362 258.209C230.491 259.177 231.661 260.306 232.871 261.597C234.081 262.807 235.977 263.936 238.558 264.985C241.139 265.953 244.043 266.437 247.27 266.437C252.513 266.437 256.627 265.186 259.612 262.686C262.597 260.104 264.089 256.353 264.089 251.433C264.089 246.996 262.718 243.406 259.975 240.664C257.232 237.84 253.925 235.703 250.053 234.251C246.181 232.799 242.269 231.266 238.316 229.653C234.444 227.959 231.137 225.418 228.394 222.03C225.651 218.561 224.28 214.124 224.28 208.72C224.28 204.525 225.087 200.895 226.7 197.83C228.313 194.684 230.451 192.344 233.113 190.812C235.856 189.198 238.679 188.029 241.583 187.303C244.487 186.577 247.593 186.214 250.9 186.214C255.901 186.214 260.661 186.94 265.178 188.392C269.776 189.763 272.075 191.699 272.075 194.2C272.075 195.329 271.672 196.539 270.865 197.83C270.058 199.12 269.01 199.766 267.719 199.766C267.396 199.766 265.541 198.999 262.153 197.467C258.765 195.934 255.014 195.168 250.9 195.168C245.979 195.168 241.986 196.176 238.921 198.193C235.936 200.209 234.444 203.396 234.444 207.752C234.444 211.462 235.815 214.487 238.558 216.827C241.301 219.085 244.608 220.9 248.48 222.272C252.433 223.643 256.345 225.216 260.217 226.991C264.089 228.765 267.396 231.629 270.139 235.582C272.882 239.454 274.253 244.415 274.253 250.465C274.253 258.854 271.833 265.186 266.993 269.462C262.153 273.737 255.74 275.875 247.754 275.875C240.575 275.875 234.484 274.342 229.483 271.277C224.562 268.211 222.102 265.186 222.102 262.202ZM280.418 191.054C280.418 189.844 280.741 188.795 281.386 187.908C282.032 186.94 282.919 186.456 284.048 186.456H333.295C334.425 186.456 335.312 186.94 335.957 187.908C336.603 188.795 336.925 189.844 336.925 191.054C336.925 192.344 336.603 193.474 335.957 194.442C335.312 195.41 334.425 195.894 333.295 195.894H313.814V271.277C313.814 272.406 313.29 273.293 312.241 273.939C311.273 274.584 310.104 274.907 308.732 274.907C307.361 274.907 306.151 274.584 305.102 273.939C304.134 273.293 303.65 272.406 303.65 271.277V195.894H284.048C282.919 195.894 282.032 195.45 281.386 194.563C280.741 193.595 280.418 192.425 280.418 191.054ZM347.227 271.277V190.086C347.227 188.956 347.671 188.069 348.558 187.424C349.526 186.778 350.615 186.456 351.825 186.456H394.901C396.031 186.456 396.878 186.899 397.442 187.787C398.088 188.674 398.41 189.723 398.41 190.933C398.41 192.223 398.088 193.353 397.442 194.321C396.797 195.208 395.95 195.652 394.901 195.652H357.391V226.386H376.267C377.316 226.386 378.163 226.829 378.808 227.717C379.454 228.523 379.776 229.532 379.776 230.742C379.776 231.79 379.454 232.758 378.808 233.646C378.244 234.452 377.397 234.856 376.267 234.856H357.391V265.711H394.901C395.95 265.711 396.797 266.195 397.442 267.163C398.088 268.05 398.41 269.139 398.41 270.43C398.41 271.64 398.088 272.688 397.442 273.576C396.878 274.463 396.031 274.907 394.901 274.907H351.825C350.615 274.907 349.526 274.584 348.558 273.939C347.671 273.293 347.227 272.406 347.227 271.277ZM407.235 249.255V212.834C407.235 203.799 409.615 197.144 414.374 192.869C419.214 188.593 425.506 186.456 433.25 186.456C441.155 186.456 447.488 188.472 452.247 192.506C457.006 196.458 459.386 201.46 459.386 207.51C459.386 209.688 458.983 211.18 458.176 211.987C457.369 212.713 456.079 213.076 454.304 213.076C451.077 213.076 449.383 211.906 449.222 209.567C448.738 200.29 443.495 195.652 433.492 195.652C422.763 195.652 417.399 201.379 417.399 212.834V249.255C417.399 260.709 422.884 266.437 433.855 266.437C437.001 266.437 439.623 265.993 441.72 265.106C443.817 264.218 445.35 262.928 446.318 261.234C447.367 259.54 448.052 258.088 448.375 256.878C448.698 255.668 448.98 254.054 449.222 252.038C449.464 249.698 451.158 248.529 454.304 248.529C456.079 248.529 457.369 248.932 458.176 249.739C458.983 250.545 459.386 252.038 459.386 254.216C459.386 260.346 456.966 265.469 452.126 269.583C447.367 273.616 441.034 275.633 433.129 275.633C425.466 275.633 419.214 273.495 414.374 269.22C409.615 264.944 407.235 258.289 407.235 249.255Z" fill="white"/>
<line x1="18.5" y1="301.5" x2="449.5" y2="301.5" stroke="#FF8400" stroke-width="3" stroke-linecap="round"/>
<path d="M90.243 343.216C88.827 343.216 87.555 342.964 86.427 342.46C85.299 341.956 84.399 341.14 83.727 340.012C83.055 338.884 82.719 337.384 82.719 335.512V317.584C82.719 317.272 82.839 317.044 83.079 316.9C83.319 316.756 83.595 316.684 83.907 316.684C84.219 316.684 84.495 316.756 84.735 316.9C84.975 317.044 85.095 317.272 85.095 317.584V335.512C85.095 337.408 85.551 338.8 86.463 339.688C87.375 340.576 88.635 341.02 90.243 341.02C91.875 341.02 93.147 340.576 94.059 339.688C94.971 338.8 95.427 337.408 95.427 335.512V317.584C95.427 317.272 95.547 317.044 95.787 316.9C96.027 316.756 96.303 316.684 96.615 316.684C96.927 316.684 97.203 316.756 97.443 316.9C97.683 317.044 97.803 317.272 97.803 317.584V335.512C97.803 337.384 97.467 338.884 96.795 340.012C96.147 341.14 95.247 341.956 94.095 342.46C92.943 342.964 91.659 343.216 90.243 343.216ZM104.336 343C104.024 343 103.748 342.928 103.508 342.784C103.268 342.616 103.148 342.376 103.148 342.064V317.584C103.148 317.248 103.268 317.02 103.508 316.9C103.748 316.756 104.024 316.684 104.336 316.684C104.624 316.684 104.876 316.768 105.092 316.936C105.308 317.08 105.512 317.284 105.704 317.548C105.896 317.788 106.064 318.064 106.208 318.376L115.928 337.492V317.584C115.928 317.272 116.048 317.044 116.288 316.9C116.528 316.756 116.804 316.684 117.116 316.684C117.404 316.684 117.668 316.756 117.908 316.9C118.172 317.044 118.304 317.272 118.304 317.584V342.064C118.304 342.376 118.172 342.616 117.908 342.784C117.668 342.928 117.404 343 117.116 343C116.78 343 116.468 342.868 116.18 342.604C115.916 342.316 115.7 341.992 115.532 341.632L105.524 322.156V342.064C105.524 342.376 105.392 342.616 105.128 342.784C104.888 342.928 104.624 343 104.336 343ZM124.865 343C124.601 343 124.349 342.928 124.109 342.784C123.893 342.616 123.785 342.376 123.785 342.064V317.584C123.785 317.272 123.905 317.044 124.145 316.9C124.385 316.756 124.661 316.684 124.973 316.684C125.261 316.684 125.525 316.756 125.765 316.9C126.029 317.044 126.161 317.272 126.161 317.584V340.804H136.421C136.709 340.804 136.913 340.924 137.033 341.164C137.153 341.38 137.213 341.62 137.213 341.884C137.213 342.172 137.153 342.436 137.033 342.676C136.913 342.892 136.709 343 136.421 343H124.865ZM146.911 343.216C145.519 343.216 144.259 342.964 143.131 342.46C142.003 341.956 141.103 341.14 140.431 340.012C139.759 338.884 139.423 337.384 139.423 335.512V324.388C139.423 322.516 139.759 321.016 140.431 319.888C141.103 318.76 141.991 317.944 143.095 317.44C144.223 316.936 145.495 316.684 146.911 316.684C148.327 316.684 149.599 316.936 150.727 317.44C151.855 317.944 152.755 318.76 153.427 319.888C154.099 321.016 154.435 322.516 154.435 324.388V335.512C154.435 337.384 154.099 338.884 153.427 340.012C152.755 341.14 151.855 341.956 150.727 342.46C149.599 342.964 148.327 343.216 146.911 343.216ZM146.911 341.02C148.519 341.02 149.767 340.576 150.655 339.688C151.567 338.8 152.023 337.408 152.023 335.512V324.388C152.023 322.492 151.567 321.1 150.655 320.212C149.767 319.324 148.519 318.88 146.911 318.88C145.303 318.88 144.055 319.324 143.167 320.212C142.279 321.1 141.835 322.492 141.835 324.388V335.512C141.835 337.408 142.279 338.8 143.167 339.688C144.055 340.576 145.303 341.02 146.911 341.02ZM166.809 343.216C165.465 343.216 164.217 342.964 163.065 342.46C161.913 341.956 161.001 341.14 160.329 340.012C159.657 338.884 159.321 337.384 159.321 335.512V324.388C159.321 322.516 159.669 321.016 160.365 319.888C161.061 318.76 161.973 317.944 163.101 317.44C164.253 316.936 165.513 316.684 166.881 316.684C168.465 316.684 169.809 316.96 170.913 317.512C172.017 318.064 172.857 318.796 173.433 319.708C174.033 320.62 174.333 321.628 174.333 322.732C174.333 323.308 174.225 323.692 174.009 323.884C173.817 324.052 173.529 324.136 173.145 324.136C172.713 324.136 172.401 324.052 172.209 323.884C172.041 323.692 171.945 323.476 171.921 323.236C171.921 322.852 171.849 322.42 171.705 321.94C171.585 321.436 171.345 320.956 170.985 320.5C170.649 320.02 170.145 319.636 169.473 319.348C168.825 319.036 167.973 318.88 166.917 318.88C165.237 318.88 163.953 319.336 163.065 320.248C162.177 321.136 161.733 322.516 161.733 324.388V335.512C161.733 337.408 162.177 338.8 163.065 339.688C163.977 340.576 165.297 341.02 167.025 341.02C168.105 341.02 168.957 340.876 169.581 340.588C170.205 340.276 170.673 339.904 170.985 339.472C171.297 339.016 171.513 338.536 171.633 338.032C171.777 337.504 171.873 337.024 171.921 336.592C171.969 336.28 172.077 336.052 172.245 335.908C172.437 335.74 172.725 335.656 173.109 335.656C173.517 335.656 173.817 335.764 174.009 335.98C174.225 336.172 174.333 336.556 174.333 337.132C174.333 338.212 174.033 339.22 173.433 340.156C172.833 341.068 171.969 341.812 170.841 342.388C169.737 342.94 168.393 343.216 166.809 343.216ZM179.711 343C179.399 343 179.123 342.928 178.883 342.784C178.643 342.616 178.523 342.376 178.523 342.064V317.584C178.523 317.272 178.643 317.044 178.883 316.9C179.123 316.756 179.399 316.684 179.711 316.684C179.999 316.684 180.263 316.756 180.503 316.9C180.767 317.044 180.899 317.272 180.899 317.584V330.292L191.303 317.044C191.471 316.804 191.711 316.684 192.023 316.684C192.239 316.684 192.443 316.744 192.635 316.864C192.851 316.984 193.019 317.14 193.139 317.332C193.283 317.524 193.355 317.716 193.355 317.908C193.355 317.98 193.343 318.076 193.319 318.196C193.295 318.292 193.247 318.376 193.175 318.448L185.435 328.06L194.291 341.38C194.387 341.524 194.435 341.68 194.435 341.848C194.435 342.064 194.363 342.268 194.219 342.46C194.099 342.628 193.931 342.772 193.715 342.892C193.523 343.012 193.307 343.072 193.067 343.072C192.899 343.072 192.731 343.024 192.563 342.928C192.419 342.832 192.287 342.7 192.167 342.532L183.851 330.076L180.899 333.784V342.064C180.899 342.376 180.767 342.616 180.503 342.784C180.263 342.928 179.999 343 179.711 343ZM211.342 343C211.054 343 210.778 342.928 210.514 342.784C210.274 342.616 210.154 342.376 210.154 342.064V332.92C210.154 332.8 210.13 332.704 210.082 332.632L202.63 318.34C202.582 318.22 202.534 318.112 202.486 318.016C202.462 317.896 202.45 317.788 202.45 317.692C202.45 317.5 202.522 317.332 202.666 317.188C202.81 317.02 202.978 316.9 203.17 316.828C203.386 316.732 203.59 316.684 203.782 316.684C203.974 316.684 204.142 316.744 204.286 316.864C204.454 316.984 204.598 317.164 204.718 317.404L211.342 330.544L218.002 317.404C218.146 317.164 218.29 316.984 218.434 316.864C218.578 316.744 218.746 316.684 218.938 316.684C219.154 316.684 219.358 316.732 219.55 316.828C219.742 316.9 219.898 317.02 220.018 317.188C220.162 317.332 220.234 317.5 220.234 317.692C220.234 317.788 220.222 317.896 220.198 318.016C220.174 318.112 220.138 318.22 220.09 318.34L212.602 332.632C212.554 332.704 212.53 332.8 212.53 332.92V342.064C212.53 342.376 212.41 342.616 212.17 342.784C211.93 342.928 211.654 343 211.342 343ZM230.477 343.216C229.085 343.216 227.825 342.964 226.697 342.46C225.569 341.956 224.669 341.14 223.997 340.012C223.325 338.884 222.989 337.384 222.989 335.512V324.388C222.989 322.516 223.325 321.016 223.997 319.888C224.669 318.76 225.557 317.944 226.661 317.44C227.789 316.936 229.061 316.684 230.477 316.684C231.893 316.684 233.165 316.936 234.293 317.44C235.421 317.944 236.321 318.76 236.993 319.888C237.665 321.016 238.001 322.516 238.001 324.388V335.512C238.001 337.384 237.665 338.884 236.993 340.012C236.321 341.14 235.421 341.956 234.293 342.46C233.165 342.964 231.893 343.216 230.477 343.216ZM230.477 341.02C232.085 341.02 233.333 340.576 234.221 339.688C235.133 338.8 235.589 337.408 235.589 335.512V324.388C235.589 322.492 235.133 321.1 234.221 320.212C233.333 319.324 232.085 318.88 230.477 318.88C228.869 318.88 227.621 319.324 226.733 320.212C225.845 321.1 225.401 322.492 225.401 324.388V335.512C225.401 337.408 225.845 338.8 226.733 339.688C227.621 340.576 228.869 341.02 230.477 341.02ZM250.555 343.216C249.139 343.216 247.867 342.964 246.739 342.46C245.611 341.956 244.711 341.14 244.039 340.012C243.367 338.884 243.031 337.384 243.031 335.512V317.584C243.031 317.272 243.151 317.044 243.391 316.9C243.631 316.756 243.907 316.684 244.219 316.684C244.531 316.684 244.807 316.756 245.047 316.9C245.287 317.044 245.407 317.272 245.407 317.584V335.512C245.407 337.408 245.863 338.8 246.775 339.688C247.687 340.576 248.947 341.02 250.555 341.02C252.187 341.02 253.459 340.576 254.371 339.688C255.283 338.8 255.739 337.408 255.739 335.512V317.584C255.739 317.272 255.859 317.044 256.099 316.9C256.339 316.756 256.615 316.684 256.927 316.684C257.239 316.684 257.515 316.756 257.755 316.9C257.995 317.044 258.115 317.272 258.115 317.584V335.512C258.115 337.384 257.779 338.884 257.107 340.012C256.459 341.14 255.559 341.956 254.407 342.46C253.255 342.964 251.971 343.216 250.555 343.216ZM277.213 343.072C276.949 343.072 276.709 342.94 276.493 342.676C276.277 342.388 276.097 342.1 275.953 341.812L270.409 331.012H265.837V342.064C265.837 342.376 265.705 342.616 265.441 342.784C265.201 342.928 264.937 343 264.649 343C264.337 343 264.061 342.928 263.821 342.784C263.581 342.616 263.461 342.376 263.461 342.064V317.584C263.461 317.344 263.545 317.14 263.713 316.972C263.881 316.804 264.097 316.708 264.361 316.684H270.733C272.149 316.684 273.445 316.9 274.621 317.332C275.797 317.764 276.733 318.496 277.429 319.528C278.149 320.56 278.509 321.976 278.509 323.776C278.509 325.264 278.257 326.488 277.753 327.448C277.273 328.408 276.601 329.152 275.737 329.68C274.897 330.184 273.949 330.532 272.893 330.724L278.437 341.38C278.509 341.452 278.545 341.536 278.545 341.632C278.569 341.704 278.581 341.776 278.581 341.848C278.581 342.04 278.509 342.232 278.365 342.424C278.245 342.616 278.077 342.772 277.861 342.892C277.645 343.012 277.429 343.072 277.213 343.072ZM265.837 328.96H270.733C272.341 328.96 273.637 328.576 274.621 327.808C275.629 327.016 276.133 325.72 276.133 323.92C276.133 322.096 275.629 320.8 274.621 320.032C273.637 319.264 272.341 318.88 270.733 318.88H265.837V328.96ZM296.239 343.216C295.927 343.216 295.627 343.144 295.339 343C295.075 342.856 294.907 342.64 294.835 342.352L287.707 317.944C287.683 317.872 287.671 317.788 287.671 317.692C287.671 317.476 287.743 317.296 287.887 317.152C288.031 317.008 288.211 316.9 288.427 316.828C288.643 316.732 288.847 316.684 289.039 316.684C289.255 316.684 289.459 316.744 289.651 316.864C289.843 316.96 289.963 317.104 290.011 317.296L296.239 339.4L299.803 325.972C299.899 325.66 300.067 325.444 300.307 325.324C300.547 325.204 300.811 325.144 301.099 325.144C301.387 325.144 301.639 325.204 301.855 325.324C302.071 325.444 302.215 325.66 302.287 325.972L305.923 339.4L312.115 317.296C312.187 317.104 312.307 316.96 312.475 316.864C312.667 316.744 312.871 316.684 313.087 316.684C313.327 316.684 313.543 316.732 313.735 316.828C313.927 316.9 314.095 317.008 314.239 317.152C314.383 317.296 314.455 317.476 314.455 317.692C314.455 317.788 314.443 317.872 314.419 317.944L307.363 342.352C307.267 342.64 307.087 342.856 306.823 343C306.559 343.144 306.259 343.216 305.923 343.216C305.611 343.216 305.311 343.144 305.023 343C304.759 342.856 304.591 342.64 304.519 342.352L301.099 329.644L297.679 342.352C297.607 342.64 297.427 342.856 297.139 343C296.875 343.144 296.575 343.216 296.239 343.216ZM325.118 343.216C323.726 343.216 322.466 342.964 321.338 342.46C320.21 341.956 319.31 341.14 318.638 340.012C317.966 338.884 317.63 337.384 317.63 335.512V324.388C317.63 322.516 317.966 321.016 318.638 319.888C319.31 318.76 320.198 317.944 321.302 317.44C322.43 316.936 323.702 316.684 325.118 316.684C326.534 316.684 327.806 316.936 328.934 317.44C330.062 317.944 330.962 318.76 331.634 319.888C332.306 321.016 332.642 322.516 332.642 324.388V335.512C332.642 337.384 332.306 338.884 331.634 340.012C330.962 341.14 330.062 341.956 328.934 342.46C327.806 342.964 326.534 343.216 325.118 343.216ZM325.118 341.02C326.726 341.02 327.974 340.576 328.862 339.688C329.774 338.8 330.23 337.408 330.23 335.512V324.388C330.23 322.492 329.774 321.1 328.862 320.212C327.974 319.324 326.726 318.88 325.118 318.88C323.51 318.88 322.262 319.324 321.374 320.212C320.486 321.1 320.042 322.492 320.042 324.388V335.512C320.042 337.408 320.486 338.8 321.374 339.688C322.262 340.576 323.51 341.02 325.118 341.02ZM351.568 343.072C351.304 343.072 351.064 342.94 350.848 342.676C350.632 342.388 350.452 342.1 350.308 341.812L344.764 331.012H340.192V342.064C340.192 342.376 340.06 342.616 339.796 342.784C339.556 342.928 339.292 343 339.004 343C338.692 343 338.416 342.928 338.176 342.784C337.936 342.616 337.816 342.376 337.816 342.064V317.584C337.816 317.344 337.9 317.14 338.068 316.972C338.236 316.804 338.452 316.708 338.716 316.684H345.088C346.504 316.684 347.8 316.9 348.976 317.332C350.152 317.764 351.088 318.496 351.784 319.528C352.504 320.56 352.864 321.976 352.864 323.776C352.864 325.264 352.612 326.488 352.108 327.448C351.628 328.408 350.956 329.152 350.092 329.68C349.252 330.184 348.304 330.532 347.248 330.724L352.792 341.38C352.864 341.452 352.9 341.536 352.9 341.632C352.924 341.704 352.936 341.776 352.936 341.848C352.936 342.04 352.864 342.232 352.72 342.424C352.6 342.616 352.432 342.772 352.216 342.892C352 343.012 351.784 343.072 351.568 343.072ZM340.192 328.96H345.088C346.696 328.96 347.992 328.576 348.976 327.808C349.984 327.016 350.488 325.72 350.488 323.92C350.488 322.096 349.984 320.8 348.976 320.032C347.992 319.264 346.696 318.88 345.088 318.88H340.192V328.96ZM357.916 343C357.652 343 357.4 342.928 357.16 342.784C356.944 342.616 356.836 342.376 356.836 342.064V317.584C356.836 317.272 356.956 317.044 357.196 316.9C357.436 316.756 357.712 316.684 358.024 316.684C358.312 316.684 358.576 316.756 358.816 316.9C359.08 317.044 359.212 317.272 359.212 317.584V340.804H369.472C369.76 340.804 369.964 340.924 370.084 341.164C370.204 341.38 370.264 341.62 370.264 341.884C370.264 342.172 370.204 342.436 370.084 342.676C369.964 342.892 369.76 343 369.472 343H357.916ZM374.545 343C374.209 343 373.945 342.916 373.753 342.748C373.561 342.58 373.465 342.364 373.465 342.1V317.584C373.465 317.32 373.561 317.104 373.753 316.936C373.945 316.768 374.209 316.684 374.545 316.684H380.917C382.333 316.684 383.605 316.936 384.733 317.44C385.885 317.944 386.785 318.76 387.433 319.888C388.105 321.016 388.441 322.516 388.441 324.388V335.296C388.441 337.168 388.105 338.668 387.433 339.796C386.785 340.924 385.885 341.74 384.733 342.244C383.605 342.748 382.333 343 380.917 343H374.545ZM375.841 340.804H380.917C382.525 340.804 383.785 340.36 384.697 339.472C385.609 338.584 386.065 337.192 386.065 335.296V324.388C386.065 322.492 385.609 321.1 384.697 320.212C383.785 319.324 382.525 318.88 380.917 318.88H375.841V340.804Z" fill="#FF8400"/>
<path d="M227.439 76.6278C227.44 75.7138 227.167 74.8155 226.645 74.0233C226.124 73.231 225.373 72.5728 224.469 72.1149C223.564 71.657 222.538 71.4154 221.493 71.4146C220.448 71.4137 219.421 71.6535 218.516 72.11C217.61 72.5664 216.858 73.2233 216.335 74.0146C215.812 74.806 215.537 75.7039 215.536 76.6179C215.536 77.532 215.811 78.43 216.333 79.2217C216.855 80.0133 217.607 80.6708 218.512 81.1278V89.6412C218.512 90.3314 218.825 90.9934 219.383 91.4815C219.941 91.9696 220.698 92.2438 221.487 92.2438C222.277 92.2438 223.033 91.9696 223.591 91.4815C224.149 90.9934 224.463 90.3314 224.463 89.6412V81.1278C225.369 80.6739 226.121 80.0185 226.643 79.2282C227.166 78.4379 227.44 77.5408 227.439 76.6278Z" fill="url(#paint0_linear_1881_105)"/>
<path d="M179.829 83.3171C179.241 83.3171 178.665 83.5789 178.176 84.0694C177.687 84.5598 177.305 85.2569 177.08 86.0724C176.855 86.888 176.796 87.7855 176.911 88.6513C177.026 89.5171 177.309 90.3124 177.725 90.9367C178.141 91.5609 178.671 91.986 179.249 92.1582C179.826 92.3304 180.424 92.242 180.968 91.9042C181.512 91.5664 181.976 90.9943 182.303 90.2603C182.63 89.5263 182.805 88.6633 182.805 87.7806C182.805 86.5968 182.491 85.4615 181.933 84.6245C181.375 83.7874 180.618 83.3171 179.829 83.3171Z" fill="url(#paint1_linear_1881_105)"/>
<path d="M242.044 154.477C241.684 153.63 241.001 152.96 240.145 152.614C239.29 152.269 238.331 152.276 237.481 152.634C231.094 155.314 224.237 156.704 217.307 156.721C210.377 156.739 203.512 155.384 197.112 152.736C190.712 150.088 184.904 146.198 180.024 141.294C175.145 136.39 171.292 130.569 168.689 124.168C168.342 123.315 167.669 122.634 166.818 122.275C165.967 121.916 165.008 121.908 164.152 122.254C163.295 122.6 162.612 123.27 162.251 124.118C161.891 124.966 161.884 125.922 162.23 126.775C165.181 134.029 169.548 140.625 175.078 146.182C180.608 151.739 187.191 156.146 194.444 159.146C201.698 162.146 209.477 163.68 217.33 163.658C225.183 163.637 232.954 162.061 240.191 159.021C241.041 158.663 241.713 157.983 242.061 157.131C242.408 156.279 242.402 155.325 242.044 154.477Z" fill="url(#paint2_linear_1881_105)"/>
<path d="M161.976 83.3171C161.186 83.3171 160.43 83.7351 159.872 84.4792C159.314 85.2232 159 86.2324 159 87.2846V103.155C159 104.207 159.314 105.216 159.872 105.96C160.43 106.704 161.186 107.122 161.976 107.122C162.765 107.122 163.522 106.704 164.08 105.96C164.638 105.216 164.951 104.207 164.951 103.155V87.2846C164.951 86.2324 164.638 85.2232 164.08 84.4792C163.522 83.7351 162.765 83.3171 161.976 83.3171Z" fill="url(#paint3_linear_1881_105)"/>
<path d="M200.379 5.25149C200.198 4.80034 199.934 4.39124 199.603 4.04754C199.272 3.70383 198.88 3.43224 198.449 3.24833C198.018 3.06442 197.557 2.97181 197.092 2.9757C196.628 2.9796 196.168 3.0799 195.74 3.271C184.839 8.11464 175.537 16.2427 169.001 26.6358C162.465 37.0288 158.986 49.2243 159 61.693V76.6117C159 77.6009 159.373 78.5496 160.037 79.249C160.7 79.9485 161.6 80.3414 162.539 80.3414C163.477 80.3414 164.378 79.9485 165.041 79.249C165.705 78.5496 166.078 77.6009 166.078 76.6117V61.693C166.066 50.6898 169.136 39.9279 174.904 30.7565C180.672 21.585 188.88 14.4122 198.5 10.1374C199.364 9.75176 200.047 9.02045 200.399 8.10431C200.752 7.18816 200.745 6.16208 200.379 5.25149Z" fill="url(#paint4_linear_1881_105)"/>
<path d="M277.203 92.2439C276.196 92.2439 275.23 92.6393 274.518 93.3432C273.806 94.0471 273.406 95.0017 273.406 95.9971V101.627C273.416 109.932 271.562 118.136 267.978 125.648C264.393 133.16 259.167 139.792 252.676 145.067C252.282 145.377 251.954 145.762 251.712 146.199C251.469 146.636 251.317 147.116 251.265 147.611C251.212 148.107 251.26 148.608 251.405 149.085C251.551 149.562 251.791 150.006 252.111 150.39C252.432 150.775 252.827 151.092 253.273 151.324C253.719 151.556 254.208 151.698 254.71 151.742C255.212 151.785 255.718 151.73 256.198 151.578C256.678 151.426 257.123 151.181 257.507 150.858C264.863 144.881 270.787 137.364 274.849 128.851C278.912 120.338 281.013 111.04 281 101.627V95.9971C281 95.0017 280.6 94.0471 279.888 93.3432C279.176 92.6393 278.21 92.2439 277.203 92.2439Z" fill="url(#paint5_linear_1881_105)"/>
<path d="M244.33 3.3001C243.901 3.09945 243.437 2.98954 242.966 2.97683C242.495 2.96412 242.027 3.0489 241.588 3.22613C241.149 3.40335 240.749 3.66942 240.412 4.00877C240.074 4.34812 239.805 4.75387 239.622 5.20212C239.438 5.65037 239.343 6.1321 239.342 6.61892C239.341 7.10574 239.434 7.58786 239.616 8.03688C239.798 8.4859 240.065 8.89276 240.401 9.23353C240.738 9.5743 241.137 9.8421 241.575 10.0212C270.683 22.7476 273.89 50.9496 273.918 62.4822C273.918 62.8473 273.918 63.143 273.936 63.4022V79.6808C273.938 80.1602 274.031 80.6346 274.21 81.0768C274.39 81.519 274.651 81.9204 274.981 82.2581C275.31 82.5957 275.7 82.8629 276.13 83.0446C276.559 83.2263 277.018 83.3189 277.482 83.317C277.946 83.3151 278.405 83.2187 278.833 83.0335C279.261 82.8483 279.649 82.5778 279.976 82.2374C280.302 81.897 280.561 81.4935 280.737 81.0498C280.913 80.6062 281.002 80.1311 281 79.6517V63.2233C281 36.6387 268.949 14.0625 244.33 3.3001Z" fill="url(#paint6_linear_1881_105)"/>
<path d="M263.098 54.4885C262.037 47.4033 259.961 40.6748 256.988 34.6905C256.763 34.2127 256.471 33.801 256.128 33.4797C255.786 33.1583 255.399 32.9338 254.992 32.8192C254.585 32.7047 254.165 32.7025 253.757 32.8128C253.35 32.923 252.962 33.1435 252.618 33.4613C252.273 33.779 251.979 34.1876 251.751 34.663C251.524 35.1384 251.369 35.6711 251.294 36.2297C251.22 36.7883 251.228 37.3616 251.319 37.9158C251.409 38.47 251.579 38.994 251.82 39.457C254.334 44.5202 256.09 50.2119 256.988 56.2051C257.17 57.2888 257.655 58.2324 258.34 58.8342C259.024 59.4361 259.854 59.6485 260.652 59.4261C261.449 59.2036 262.152 58.564 262.609 57.6438C263.066 56.7236 263.241 55.5958 263.098 54.5013V54.4885Z" fill="url(#paint7_linear_1881_105)"/>
<path d="M249.681 20.3398C240.694 13.9312 229.883 11.0293 219.097 12.1311C208.312 13.2328 198.224 18.2697 190.561 26.3791C177.329 40.3859 177.099 53.655 176.908 64.3189C176.79 71.2025 176.908 60.782 176.855 76.5383C176.855 77.5469 177.233 78.5142 177.907 79.2275C178.581 79.9407 179.495 80.3414 180.447 80.3414C181.4 80.3414 182.314 79.9407 182.988 79.2275C183.662 78.5142 184.04 77.5469 184.04 76.5383V67.0799C184.328 55.4386 183.656 44.4325 195.631 31.7606C202.112 24.9016 210.645 20.6406 219.767 19.7068C228.89 18.773 238.036 21.2245 245.639 26.6416C246.428 27.2064 247.397 27.4161 248.333 27.2246C249.269 27.0331 250.094 26.4561 250.628 25.6205C251.161 24.7848 251.359 23.759 251.178 22.7687C250.997 21.7784 250.452 20.9047 249.663 20.3398H249.681Z" fill="url(#paint8_linear_1881_105)"/>
<path d="M250.622 133.518C250.088 132.772 249.263 132.256 248.328 132.085C247.393 131.914 246.424 132.102 245.635 132.607C239.235 136.752 231.672 138.992 223.917 139.041C203.576 139.122 184.039 123.898 184.039 101.596C184.039 100.694 183.66 99.8289 182.987 99.1911C182.313 98.5534 181.399 98.1951 180.446 98.1951C179.493 98.1951 178.58 98.5534 177.906 99.1911C177.232 99.8289 176.854 100.694 176.854 101.596C176.854 127.397 199.171 145.805 223.806 145.805C233.034 145.793 242.046 143.158 249.673 138.242C250.461 137.734 251.003 136.952 251.181 136.066C251.358 135.18 251.157 134.264 250.622 133.518Z" fill="url(#paint9_linear_1881_105)"/>
<path d="M260.209 62.4878C259.43 62.4878 258.683 62.8633 258.132 63.5316C257.581 64.1999 257.272 65.1063 257.272 66.0515V103.47C257.28 111.276 255.355 118.906 251.747 125.369C251.311 126.152 251.15 127.114 251.298 128.042C251.446 128.97 251.893 129.788 252.538 130.317C253.184 130.846 253.977 131.042 254.742 130.862C255.506 130.681 256.181 130.14 256.617 129.357C260.881 121.716 263.156 112.698 263.147 103.47V66.0515C263.147 65.1063 262.837 64.1999 262.286 63.5316C261.735 62.8633 260.988 62.4878 260.209 62.4878Z" fill="url(#paint10_linear_1881_105)"/>
<path d="M220.892 126.799C214.265 126.794 207.911 124.17 203.225 119.504C198.538 114.838 195.903 108.512 195.897 101.913V59.2522C195.89 55.9285 196.559 52.6378 197.865 49.5788C198.048 49.1488 198.144 48.6871 198.148 48.2201C198.152 47.7531 198.063 47.2898 197.888 46.8569C197.712 46.4239 197.452 46.0297 197.123 45.6967C196.794 45.3637 196.402 45.0985 195.971 44.9162C195.539 44.7339 195.075 44.638 194.606 44.6342C194.137 44.6303 193.672 44.7185 193.237 44.8936C192.802 45.0687 192.406 45.3274 192.071 45.6549C191.737 45.9823 191.471 46.3722 191.288 46.8022C189.611 50.7379 188.75 54.9701 188.756 59.2451V101.906C188.761 110.391 192.148 118.526 198.174 124.526C204.199 130.525 212.371 133.898 220.892 133.902C221.839 133.902 222.748 133.528 223.417 132.861C224.087 132.194 224.463 131.29 224.463 130.347C224.463 129.404 224.087 128.5 223.417 127.833C222.748 127.167 221.839 126.792 220.892 126.792V126.799Z" fill="url(#paint11_linear_1881_105)"/>
<path d="M248.97 104.217C248.604 104.126 248.226 104.123 247.859 104.208C247.492 104.294 247.143 104.466 246.831 104.716C246.519 104.965 246.25 105.286 246.041 105.661C245.831 106.036 245.685 106.458 245.61 106.901C244.826 111.523 242.936 115.762 240.176 119.09C239.642 119.737 239.342 120.613 239.342 121.527C239.342 122.442 239.641 123.318 240.175 123.965C240.708 124.612 241.432 124.975 242.186 124.976C242.941 124.976 243.665 124.613 244.199 123.967C247.748 119.684 250.178 114.231 251.186 108.287C251.261 107.843 251.264 107.386 251.193 106.941C251.122 106.497 250.98 106.073 250.774 105.695C250.568 105.317 250.303 104.992 249.993 104.739C249.684 104.485 249.336 104.308 248.97 104.217Z" fill="url(#paint12_linear_1881_105)"/>
<path d="M220.653 23.805C216.566 23.7978 212.52 24.6659 208.758 26.3574C208.336 26.534 207.953 26.7981 207.629 27.1342C207.305 27.4702 207.048 27.8714 206.873 28.3142C206.698 28.757 206.608 29.2325 206.609 29.7125C206.61 30.1926 206.702 30.6677 206.879 31.1097C207.055 31.5518 207.314 31.9519 207.639 32.2865C207.964 32.6212 208.349 32.8836 208.771 33.0583C209.193 33.2331 209.644 33.3167 210.097 33.3042C210.55 33.2916 210.996 33.1833 211.409 32.9854C215.026 31.3689 218.964 30.7257 222.872 31.1131C226.781 31.5004 230.538 32.9064 233.809 35.2055C237.08 37.5046 239.764 40.6255 241.62 44.2898C243.476 47.9541 244.447 52.048 244.446 56.2064V88.6438C244.446 89.5986 244.804 90.5143 245.442 91.1895C246.079 91.8646 246.944 92.244 247.845 92.244C248.746 92.244 249.611 91.8646 250.248 91.1895C250.885 90.5143 251.244 89.5986 251.244 88.6438V56.2064C251.235 47.6153 248.009 39.3788 242.274 33.3044C236.539 27.2299 228.763 23.8136 220.653 23.805Z" fill="url(#paint13_linear_1881_105)"/>
<path d="M220 41.6584C214.872 41.664 209.956 43.5183 206.33 46.8146C202.704 50.1108 200.664 54.58 200.658 59.2416V76.8247C200.658 77.7574 201.066 78.6519 201.791 79.3114C202.517 79.9709 203.501 80.3414 204.526 80.3414C205.552 80.3414 206.536 79.9709 207.262 79.3114C207.987 78.6519 208.395 77.7574 208.395 76.8247V59.2416C209.029 45.2454 230.97 45.2454 231.605 59.2416C231.605 60.1743 232.012 61.0687 232.738 61.7282C233.463 62.3877 234.447 62.7582 235.473 62.7582C236.499 62.7582 237.483 62.3877 238.208 61.7282C238.934 61.0687 239.341 60.1743 239.341 59.2416C239.335 54.58 237.295 50.1108 233.669 46.8146C230.043 43.5183 225.127 41.664 220 41.6584Z" fill="url(#paint14_linear_1881_105)"/>
<path d="M239.309 98.9905C239.309 98.296 239.309 99.6773 239.285 100.038C239.285 100.537 239.285 99.0864 239.321 87.5373C239.377 87.0038 239.316 86.465 239.141 85.9556C238.967 85.4462 238.684 84.9776 238.309 84.58C237.935 84.1823 237.478 83.8646 236.968 83.6471C236.458 83.4295 235.906 83.3171 235.348 83.3171C234.79 83.3171 234.238 83.4295 233.728 83.6471C233.218 83.8646 232.761 84.1823 232.387 84.58C232.013 84.9776 231.729 85.4462 231.555 85.9556C231.381 86.465 231.32 87.0038 231.375 87.5373C231.323 106.722 231.303 95.7061 231.375 99.1209C231.447 103.284 231.439 105.007 230.401 107.359C226.348 116.683 212.385 116.683 208.328 107.359C206.068 102.755 199.104 105.582 200.973 110.355C207.733 125.884 231 125.88 237.756 110.355C239.445 106.507 239.389 103.514 239.309 98.9905Z" fill="url(#paint15_linear_1881_105)"/>
<path d="M227.408 0.125207C223.515 -0.0417355 219.591 -0.0417355 215.697 0.125207C215.247 0.138397 214.808 0.189776 214.405 0.276257C214.003 0.362738 213.646 0.482575 213.355 0.628661C213.064 0.774747 212.845 0.94411 212.711 1.12668C212.578 1.30925 212.532 1.50132 212.577 1.69148C212.623 1.88165 212.758 2.06601 212.974 2.23367C213.191 2.40134 213.485 2.54886 213.839 2.66749C214.192 2.78612 214.599 2.87342 215.034 2.92423C215.469 2.97505 215.924 2.98835 216.371 2.96332C219.808 2.81635 223.271 2.81635 226.708 2.96332C226.82 2.96882 226.932 2.97165 227.045 2.97186C227.909 2.9719 228.74 2.83123 229.367 2.57894C229.993 2.32664 230.367 1.98205 230.41 1.61641C230.453 1.25077 230.163 0.892074 229.599 0.614517C229.036 0.336961 228.242 0.161771 227.382 0.125207H227.408Z" fill="url(#paint16_linear_1881_105)"/>
<defs>
<linearGradient id="paint0_linear_1881_105" x1="215.536" y1="71.4146" x2="226.877" y2="71.858" gradientUnits="userSpaceOnUse">
<stop stop-color="#CF5D0A"/>
<stop offset="1" stop-color="#9E0AD1"/>
</linearGradient>
<linearGradient id="paint1_linear_1881_105" x1="176.854" y1="83.3171" x2="182.521" y2="83.5757" gradientUnits="userSpaceOnUse">
<stop stop-color="#CF5D0A"/>
<stop offset="1" stop-color="#9E0AD1"/>
</linearGradient>
<linearGradient id="paint2_linear_1881_105" x1="161.976" y1="122" x2="237.332" y2="131.944" gradientUnits="userSpaceOnUse">
<stop stop-color="#CF5D0A"/>
<stop offset="1" stop-color="#9E0AD1"/>
</linearGradient>
<linearGradient id="paint3_linear_1881_105" x1="159" y1="83.3171" x2="164.678" y2="83.4143" gradientUnits="userSpaceOnUse">
<stop stop-color="#CF5D0A"/>
<stop offset="1" stop-color="#9E0AD1"/>
</linearGradient>
<linearGradient id="paint4_linear_1881_105" x1="159" y1="2.97559" x2="198.7" y2="4.43833" gradientUnits="userSpaceOnUse">
<stop stop-color="#CF5D0A"/>
<stop offset="1" stop-color="#9E0AD1"/>
</linearGradient>
<linearGradient id="paint5_linear_1881_105" x1="251.244" y1="92.2439" x2="279.607" y2="93.2143" gradientUnits="userSpaceOnUse">
<stop stop-color="#CF5D0A"/>
<stop offset="1" stop-color="#9E0AD1"/>
</linearGradient>
<linearGradient id="paint6_linear_1881_105" x1="239.342" y1="2.97559" x2="279.046" y2="4.38429" gradientUnits="userSpaceOnUse">
<stop stop-color="#CF5D0A"/>
<stop offset="1" stop-color="#9E0AD1"/>
</linearGradient>
<linearGradient id="paint7_linear_1881_105" x1="251.244" y1="32.7317" x2="262.592" y2="33.0768" gradientUnits="userSpaceOnUse">
<stop stop-color="#CF5D0A"/>
<stop offset="1" stop-color="#9E0AD1"/>
</linearGradient>
<linearGradient id="paint8_linear_1881_105" x1="176.854" y1="11.9023" x2="247.453" y2="17.1532" gradientUnits="userSpaceOnUse">
<stop stop-color="#CF5D0A"/>
<stop offset="1" stop-color="#9E0AD1"/>
</linearGradient>
<linearGradient id="paint9_linear_1881_105" x1="176.854" y1="98.1951" x2="247.041" y2="105.699" gradientUnits="userSpaceOnUse">
<stop stop-color="#CF5D0A"/>
<stop offset="1" stop-color="#9E0AD1"/>
</linearGradient>
<linearGradient id="paint10_linear_1881_105" x1="251.244" y1="62.4878" x2="262.601" y2="62.6229" gradientUnits="userSpaceOnUse">
<stop stop-color="#CF5D0A"/>
<stop offset="1" stop-color="#9E0AD1"/>
</linearGradient>
<linearGradient id="paint11_linear_1881_105" x1="188.756" y1="44.634" x2="222.805" y2="45.566" gradientUnits="userSpaceOnUse">
<stop stop-color="#CF5D0A"/>
<stop offset="1" stop-color="#9E0AD1"/>
</linearGradient>
<linearGradient id="paint12_linear_1881_105" x1="239.342" y1="104.146" x2="250.683" y2="104.59" gradientUnits="userSpaceOnUse">
<stop stop-color="#CF5D0A"/>
<stop offset="1" stop-color="#9E0AD1"/>
</linearGradient>
<linearGradient id="paint13_linear_1881_105" x1="206.609" y1="23.8049" x2="249.119" y2="25.7019" gradientUnits="userSpaceOnUse">
<stop stop-color="#CF5D0A"/>
<stop offset="1" stop-color="#9E0AD1"/>
</linearGradient>
<linearGradient id="paint14_linear_1881_105" x1="200.658" y1="41.6584" x2="237.401" y2="44.1726" gradientUnits="userSpaceOnUse">
<stop stop-color="#CF5D0A"/>
<stop offset="1" stop-color="#9E0AD1"/>
</linearGradient>
<linearGradient id="paint15_linear_1881_105" x1="200.658" y1="83.3171" x2="237.401" y2="85.8313" gradientUnits="userSpaceOnUse">
<stop stop-color="#CF5D0A"/>
<stop offset="1" stop-color="#9E0AD1"/>
</linearGradient>
<linearGradient id="paint16_linear_1881_105" x1="212.561" y1="0" x2="227.141" y2="5.98588" gradientUnits="userSpaceOnUse">
<stop stop-color="#CF5D0A"/>
<stop offset="1" stop-color="#9E0AD1"/>
</linearGradient>
</defs>
</svg>
