<?xml version="1.0" encoding="UTF-8"?>
<svg xmlns="http://www.w3.org/2000/svg" version="1.1" viewBox="0 0 185.7 80.6">
  <!-- Generator: Adobe Illustrator 28.6.0, SVG Export Plug-In . SVG Version: 1.2.0 Build 709)  -->
  <g>
    <g id="Layer_1">
      <rect y="-.2" width="185.7" height="80.8" fill="#1d1d1b"/>
      <g>
        <g>
          <path d="M21.9,25.2l1.9,7.3c.5,1.7-.3,3.6-1.8,4.5l-8,5c-2.6,1.6-.8,5.6,2.1,4.8l20.5-5.8c2.1-.6,2.7-3.2,1.2-4.7l-13.1-12.7c-1.2-1.2-3.3,0-2.8,1.7Z" fill="#6755a0"/>
          <path d="M66.3,55.4l-1.9-7.3c-.5-1.7.3-3.6,1.8-4.5l8-5c2.6-1.6.8-5.6-2.1-4.8l-20.5,5.8c-2.1.6-2.7,3.2-1.2,4.7l13.1,12.7c1.2,1.2,3.3,0,2.8-1.7Z" fill="#f6e820"/>
          <path d="M68.3,28.6l-7.2-2c-1.7-.5-3-2-3-3.8l-.3-9.4c0-3.1-4.5-3.5-5.2-.6l-5.2,20.7c-.5,2.1,1.4,4,3.5,3.4l17.5-5c1.7-.5,1.6-2.8,0-3.3Z" fill="#fab60c"/>
          <path d="M19.9,52l7.2,2c1.7.5,3,2,3,3.8l.3,9.4c0,3.1,4.5,3.5,5.2.6l5.2-20.7c.5-2.1-1.4-4-3.5-3.4l-17.5,5c-1.7.5-1.6,2.8,0,3.3Z" fill="#00b5eb"/>
          <path d="M46,13.5l-5.3,5.3c-1.3,1.3-3.2,1.6-4.8.7l-8.3-4.4c-2.7-1.4-5.3,2.1-3.1,4.2l15.3,14.8c1.5,1.5,4.1.8,4.6-1.3l4.4-17.7c.4-1.7-1.6-2.8-2.8-1.6Z" fill="#e83774"/>
          <path d="M42.2,67.1l5.3-5.3c1.3-1.3,3.2-1.6,4.8-.7l8.3,4.4c2.7,1.4,5.3-2.1,3.1-4.2l-15.3-14.8c-1.5-1.5-4.1-.8-4.6,1.3l-4.4,17.7c-.4,1.7,1.6,2.8,2.8,1.6Z" fill="#9bc31c"/>
        </g>
        <g>
          <path d="M76.7,63l1.4-6.8h.6c0,1.5.3,5.5.3,5.9h0c.2-1,.4-2,.6-3.1l.6-2.8h.5l-1.4,6.8h-.6c0-1.4-.3-5.4-.3-6h0c-.1.9-.4,2-.6,3.2l-.6,2.8h-.5Z" fill="#fff"/>
          <path d="M83.1,59.6h-1.5l-.6,3h1.7v.4h-2.3l1.4-6.8h2v.4h-1.7l-.5,2.5h1.5v.4Z" fill="#fff"/>
          <path d="M85.2,56.7h-1.1v-.4h2.7v.4h-1.1l-1.3,6.3h-.5l1.3-6.3Z" fill="#fff"/>
          <path d="M86.8,63l.5-6.8h.5c-.1,1.7-.4,5.2-.6,6h0c.2-.9,1.6-4.3,2.2-6h.5c-.1,1.7-.3,5-.4,6h0c.2-1,1.5-4.3,2.1-6h.5l-2.5,6.8h-.5c.1-1.6.3-4.9.4-5.8h0c-.3,1.1-1.5,4.2-2.1,5.8h-.5Z" fill="#fff"/>
          <path d="M94.9,57.9l-.8,3.5c-.2,1.1-.6,1.7-1.5,1.7s-1.2-.7-1-1.7l.8-3.6c.2-1,.6-1.6,1.5-1.6s1.2.8,1,1.7ZM92.9,57.8l-.8,3.6c-.2.9,0,1.3.6,1.3s.8-.4,1-1.3l.8-3.5c.2-.9,0-1.3-.6-1.3s-.8.5-1,1.2Z" fill="#fff"/>
          <path d="M96,59.7l-.7,3.3h-.5l1.4-6.8h.9c1,0,1.3.7,1.1,1.5v.4c-.3,1-.7,1.2-1.1,1.3.4.2.5.7.3,1.5-.1.6-.3,1.5-.3,2h-.5c0-.4.2-1.4.4-2.1.2-.9,0-1.2-.7-1.2h-.4ZM96.1,59.2h.3c.8,0,1.1-.3,1.2-1v-.5c.2-.7,0-1.1-.6-1.1h-.4l-.5,2.6Z" fill="#fff"/>
          <path d="M99.5,56.2h.5l-.7,3.4h0c.3-.5,1.6-2.4,2.3-3.4h.5l-1.8,2.6.5,4.1h-.5l-.4-3.6-.8,1.1-.5,2.5h-.5l1.4-6.8Z" fill="#fff"/>
          <path d="M103.3,61.3v.2c-.2.8,0,1.2.6,1.2s.8-.4.9-1.1c.1-.8,0-1.3-.5-1.9-.6-.7-.9-1.2-.7-2.1.2-.8.5-1.3,1.3-1.3s1.1.7,1,1.6v.2h-.5v-.2c.1-.6.1-1.2-.5-1.2s-.7.4-.8,1c-.1.7,0,1.1.5,1.7.7.8.9,1.4.7,2.4-.2.8-.5,1.5-1.4,1.5s-1.2-.7-1-1.7h0c0-.1.5-.1.5-.1Z" fill="#fff"/>
          <path d="M108.5,59.6h-1.5l-.6,3h1.7v.4h-2.3l1.4-6.8h2v.4h-1.7l-.5,2.5h1.5v.4Z" fill="#fff"/>
          <path d="M112.4,60c.3-1.3.6-2.6.7-3.2h0c-.4,1.1-1.7,4.2-2.5,6.3h-.5c0-1.7.2-5.1.2-6.3h0c-.1.8-.4,2.3-.7,3.5l-.6,2.8h-.5l1.4-6.8h.7c0,2.2-.1,5.1-.2,5.9h0c.3-.8,1.5-3.8,2.4-5.9h.7l-1.4,6.8h-.5l.6-3Z" fill="#fff"/>
          <path d="M116.1,56.2h2.1v.4h-1.7l-.5,2.5h1.5v.4h-1.6l-.7,3.4h-.5l1.4-6.8Z" fill="#fff"/>
          <path d="M118.7,59.7l-.7,3.3h-.5l1.4-6.8h.9c1,0,1.3.7,1.1,1.5v.4c-.3,1-.7,1.2-1.1,1.3.4.2.5.7.3,1.5-.1.6-.3,1.5-.3,2h-.5c0-.4.2-1.4.4-2.1.2-.9,0-1.2-.7-1.2h-.4ZM118.8,59.2h.3c.8,0,1.1-.3,1.2-1v-.5c.2-.7,0-1.1-.6-1.1h-.4l-.5,2.6Z" fill="#fff"/>
          <path d="M124.4,57.9l-.8,3.5c-.2,1.1-.6,1.7-1.5,1.7s-1.2-.7-1-1.7l.8-3.6c.2-1,.6-1.6,1.5-1.6s1.2.8,1,1.7ZM122.3,57.8l-.8,3.6c-.2.9,0,1.3.6,1.3s.8-.4,1-1.3l.8-3.5c.2-.9,0-1.3-.6-1.3s-.8.5-1,1.2Z" fill="#fff"/>
          <path d="M124.2,63l1.4-6.8h.6c0,1.5.3,5.5.3,5.9h0c.2-1,.4-2,.6-3.1l.6-2.8h.5l-1.4,6.8h-.6c0-1.4-.3-5.4-.3-6h0c-.1.9-.4,2-.6,3.2l-.6,2.8h-.5Z" fill="#fff"/>
          <path d="M129.8,56.7h-1.1v-.4h2.7v.4h-1.1l-1.3,6.3h-.5l1.3-6.3Z" fill="#fff"/>
          <path d="M133.3,59.6h-1.5l-.6,3h1.7v.4h-2.3l1.4-6.8h2v.4h-1.7l-.5,2.5h1.5v.4Z" fill="#fff"/>
          <path d="M135.3,56.2l-1.4,6.8h-.5l1.4-6.8h.5Z" fill="#fff"/>
          <path d="M136.2,59.7l-.7,3.3h-.5l1.4-6.8h.9c1,0,1.3.7,1.1,1.5v.4c-.3,1-.7,1.2-1.1,1.3.4.2.5.7.3,1.5-.1.6-.3,1.5-.3,2h-.5c0-.4.2-1.4.4-2.1.2-.9,0-1.2-.7-1.2h-.4ZM136.3,59.2h.3c.8,0,1.1-.3,1.2-1v-.5c.2-.7,0-1.1-.6-1.1h-.4l-.5,2.6Z" fill="#fff"/>
          <path d="M139.3,60.6l-.9,2.4h-.5c.7-1.8,1.8-4.7,2.5-6.8h.7l-.3,6.8h-.5v-2.4c.1,0-1.1,0-1.1,0ZM140.5,60.2c0-1.5.1-2.9.2-3.5h0c-.1.4-.7,2.1-1.2,3.5h1.1Z" fill="#fff"/>
          <path d="M142.2,61.3v.2c-.2.8,0,1.2.6,1.2s.8-.4.9-1.1c.1-.8,0-1.3-.5-1.9-.6-.7-.9-1.2-.7-2.1.2-.8.5-1.3,1.3-1.3s1.1.7,1,1.6v.2h-.5v-.2c.1-.6.1-1.2-.5-1.2s-.7.4-.8,1c-.1.7,0,1.1.5,1.7.7.8.9,1.4.7,2.4-.2.8-.5,1.5-1.4,1.5s-1.2-.7-1-1.7h0c0-.1.5-.1.5-.1Z" fill="#fff"/>
        </g>
        <path d="M172.2,21.1l.8-3.7h-45.8c-8.3,0-12.5,4.3-12.5,10s2.6,6.7,9.3,8.9c3.7,1.2,5.1,2.2,5.1,4.2s-1.6,3.1-4.1,3.1h-16.1l5.5-26.1h-5.2c-1.8,0-3.4,1.3-3.7,3.1l-3.6,18.8h-.1l-4.4-21.9h-11l-6.8,32.2h5.2c1.8,0,3.4-1.3,3.7-3l4-20h.1l4.5,23h27.8c9-.2,13.2-4.4,13.2-10.2s-2.9-7.3-9.8-9.6c-3.7-1.2-4.8-2.2-4.8-3.7s1-2.1,2.2-2.1h17.8s-5.4,25.5-5.4,25.5h5.7c1.8,0,3.3-1.3,3.7-3l1.9-9.2h7.9c1.8,0,3.3-1.2,3.7-3l.8-3.6h-11l1.3-6.6h16.2c1.8,0,3.3-1.2,3.7-3Z" fill="#fff"/>
      </g>
    </g>
  </g>
</svg>